/* XPM */
static char * app_xpm[] = {
"32 32 615 2",
"  	c None",
". 	c #888C87",
"+ 	c #A3A5A1",
"@ 	c #A8AAA6",
"# 	c #A7A9A5",
"$ 	c #9C9E9B",
"% 	c #82847F",
"& 	c #7E807B",
"* 	c #939691",
"= 	c #B1B2AF",
"- 	c #D8D9D7",
"; 	c #EAEBE9",
"> 	c #E4E5E4",
", 	c #DBDCDA",
"' 	c #E8E8E7",
") 	c #ECEDEC",
"! 	c #E7E7E6",
"~ 	c #BEC0BC",
"{ 	c #676965",
"] 	c #AAACA8",
"^ 	c #F6F6F6",
"/ 	c #EFF0EF",
"( 	c #E2E2E1",
"_ 	c #D5D6D4",
": 	c #C9CAC8",
"< 	c #BEBEBC",
"[ 	c #D0D1CF",
"} 	c #D8DAD7",
"| 	c #7B7D7A",
"1 	c #DBDED8",
"2 	c #7B7E79",
"3 	c #CCCDCB",
"4 	c #F0F0F0",
"5 	c #E4E4E4",
"6 	c #E8E8E8",
"7 	c #E3E3E2",
"8 	c #DDDDDC",
"9 	c #E4E4E3",
"0 	c #EEEEED",
"a 	c #ABACA9",
"b 	c #E0E4DD",
"c 	c #E4E6E2",
"d 	c #80827B",
"e 	c #D9DBD9",
"f 	c #E1E2E0",
"g 	c #D6D7D5",
"h 	c #CACBC9",
"i 	c #C1C2C0",
"j 	c #D3D3D2",
"k 	c #E9E9E8",
"l 	c #ACAEAA",
"m 	c #D4D6D0",
"n 	c #E1E3DE",
"o 	c #91948F",
"p 	c #EAEAE9",
"q 	c #E6E7E5",
"r 	c #E0E0DF",
"s 	c #C5C6C5",
"t 	c #CECFCD",
"u 	c #D8D8D7",
"v 	c #8C8D88",
"w 	c #AEB0AD",
"x 	c #B6B8B5",
"y 	c #B9BBB7",
"z 	c #C5C7C4",
"A 	c #CFD0CE",
"B 	c #C9CBC8",
"C 	c #C4C6C3",
"D 	c #BCBDBA",
"E 	c #B5B7B3",
"F 	c #D6D8D3",
"G 	c #CACBC5",
"H 	c #7F827D",
"I 	c #E8E9E7",
"J 	c #C9C9C7",
"K 	c #CBCBC9",
"L 	c #E4E6E4",
"M 	c #9FA19D",
"N 	c #E0E1E0",
"O 	c #F1F2F1",
"P 	c #F7F8F7",
"Q 	c #EEEFEE",
"R 	c #E2E3E0",
"S 	c #E2E3E2",
"T 	c #D8D9D8",
"U 	c #D7D7D6",
"V 	c #DBDCDB",
"W 	c #E6E6E6",
"X 	c #F5F4F5",
"Y 	c #F3F3F1",
"Z 	c #E6E8E3",
"` 	c #E5E7E3",
" .	c #DFE1DF",
"..	c #9FA29E",
"+.	c #82857F",
"@.	c #E7E7E7",
"#.	c #C6C6C5",
"$.	c #C7C7C5",
"%.	c #D2D2D0",
"&.	c #E3E3E3",
"*.	c #ECECEB",
"=.	c #F4F4F4",
"-.	c #DDDEDD",
";.	c #D8D8D6",
">.	c #D9DBD8",
",.	c #CBCDCA",
"'.	c #C6C7C5",
").	c #C4C4C3",
"!.	c #C7C8C6",
"~.	c #DBDBD8",
"{.	c #DDDFDA",
"].	c #DDDEDA",
"^.	c #FDFDFD",
"/.	c #EEEFED",
"(.	c #E6E7E6",
"_.	c #E6E6E4",
":.	c #C5C5C3",
"<.	c #C2C3C1",
"[.	c #CECECD",
"}.	c #A9ABA7",
"|.	c #B4B6B2",
"1.	c #F6F7F6",
"2.	c #DADBD9",
"3.	c #E0E1DE",
"4.	c #D5D6D3",
"5.	c #D4D5D3",
"6.	c #CDCECC",
"7.	c #DCDCDB",
"8.	c #E5E5E4",
"9.	c #EAECE9",
"0.	c #EDEEEB",
"a.	c #F8F8F7",
"b.	c #B6B7B4",
"c.	c #E5E5E5",
"d.	c #E3E4E2",
"e.	c #BEBFBD",
"f.	c #CBCCCA",
"g.	c #7F817B",
"h.	c #DFE1DE",
"i.	c #D2D3D0",
"j.	c #DCDDDC",
"k.	c #D7D8D7",
"l.	c #D4D4D2",
"m.	c #DEDEDD",
"n.	c #E1E2E1",
"o.	c #E0E2DE",
"p.	c #E2E4DF",
"q.	c #DCDDDA",
"r.	c #7E817C",
"s.	c #DFE0DF",
"t.	c #E3E4E3",
"u.	c #E1E1E0",
"v.	c #BABBB9",
"w.	c #C7C8C5",
"x.	c #DFE0DE",
"y.	c #7F827C",
"z.	c #E8E9E8",
"A.	c #DDDDDB",
"B.	c #D5D8D6",
"C.	c #D0D4D4",
"D.	c #CACDCF",
"E.	c #C0C7CC",
"F.	c #B7BFC3",
"G.	c #B4BCC0",
"H.	c #B8C0C5",
"I.	c #C2C9CE",
"J.	c #CED3D5",
"K.	c #DADDD8",
"L.	c #DEE0DC",
"M.	c #DCDEDB",
"N.	c #E6E6E5",
"O.	c #7E817B",
"P.	c #DEDFDE",
"Q.	c #E1E1E1",
"R.	c #BBBCBA",
"S.	c #B5B6B4",
"T.	c #C4C5C2",
"U.	c #757772",
"V.	c #D9DAD9",
"W.	c #CFD1CE",
"X.	c #E1DCD5",
"Y.	c #F0E4D8",
"Z.	c #E6D2C0",
"`.	c #D1A174",
" +	c #CB9768",
".+	c #CA9768",
"++	c #CC9A6B",
"@+	c #D0A379",
"#+	c #D3B89E",
"$+	c #DDDCD6",
"%+	c #DCDFDD",
"&+	c #DCE3E6",
"*+	c #E5E6E6",
"=+	c #81847E",
"-+	c #DDDEDC",
";+	c #DBDBDA",
">+	c #B9B9B7",
",+	c #B2B3B1",
"'+	c #C2C3C0",
")+	c #CDCFCD",
"!+	c #8F918D",
"~+	c #60635F",
"{+	c #9A9B99",
"]+	c #B8B9B7",
"^+	c #CCCEC9",
"/+	c #CAC6BD",
"(+	c #B9A289",
"_+	c #F0C99C",
":+	c #FDD199",
"<+	c #F9A331",
"[+	c #F99F28",
"}+	c #FAA02A",
"|+	c #F9A02A",
"1+	c #F79A25",
"2+	c #E99D43",
"3+	c #E0D1BE",
"4+	c #D9B794",
"5+	c #D8A983",
"6+	c #E2E1E0",
"7+	c #7F837D",
"8+	c #B3B4B1",
"9+	c #9D9F9B",
"0+	c #9E9F9C",
"a+	c #EBEBEA",
"b+	c #D2D2CD",
"c+	c #E0DED8",
"d+	c #DBD9D3",
"e+	c #D3D1CC",
"f+	c #BFA37F",
"g+	c #FFCC8B",
"h+	c #FA9E2E",
"i+	c #F99A25",
"j+	c #F99B27",
"k+	c #FA9C25",
"l+	c #F49629",
"m+	c #E3B585",
"n+	c #EDA14B",
"o+	c #E77705",
"p+	c #DEB68F",
"q+	c #7F8888",
"r+	c #81837E",
"s+	c #DADCDA",
"t+	c #B4B5B1",
"u+	c #B2B2AF",
"v+	c #ACADAA",
"w+	c #A4A5A3",
"x+	c #F1F1F1",
"y+	c #F2F1F1",
"z+	c #D9D9D8",
"A+	c #D9D9D6",
"B+	c #E3E2DC",
"C+	c #E6E2DC",
"D+	c #D7D2CB",
"E+	c #CCA271",
"F+	c #FEBC74",
"G+	c #F78B18",
"H+	c #F6860E",
"I+	c #F78710",
"J+	c #F78911",
"K+	c #F88B14",
"L+	c #F7870E",
"M+	c #F58F1A",
"N+	c #E68115",
"O+	c #DBB28C",
"P+	c #DDDDDA",
"Q+	c #E0DEDA",
"R+	c #CED0CF",
"S+	c #A9ACAD",
"T+	c #A6A9A9",
"U+	c #C4C4BF",
"V+	c #C0BFBB",
"W+	c #9FA09D",
"X+	c #DDDCDD",
"Y+	c #C8C9C6",
"Z+	c #CAC3BB",
"`+	c #DDD3C8",
" @	c #B8A896",
".@	c #E6AA68",
"+@	c #FDB96D",
"@@	c #F7921F",
"#@	c #F78E18",
"$@	c #F78E1A",
"%@	c #F58D1A",
"&@	c #F38C19",
"*@	c #EF8819",
"=@	c #E98317",
"-@	c #DD700C",
";@	c #D15D01",
">@	c #D8B292",
",@	c #808887",
"'@	c #CCD1D5",
")@	c #9BB0C9",
"!@	c #97B0CE",
"~@	c #7598C1",
"{@	c #668CB8",
"]@	c #6E8DB2",
"^@	c #B6C1CE",
"/@	c #9B9C97",
"(@	c #C7C9C5",
"_@	c #D2D2CE",
":@	c #BCAC9B",
"<@	c #D7C9BB",
"[@	c #B69A7D",
"}@	c #ED9B4F",
"|@	c #F7A350",
"1@	c #F47E09",
"2@	c #F07805",
"3@	c #EC7605",
"4@	c #E77204",
"5@	c #E26D02",
"6@	c #DC6500",
"7@	c #D66100",
"8@	c #D35F00",
"9@	c #D15B00",
"0@	c #D8B291",
"a@	c #7F8887",
"b@	c #87887F",
"c@	c #A6B9CC",
"d@	c #81A6D0",
"e@	c #9DBDDF",
"f@	c #87AED8",
"g@	c #7BA7D5",
"h@	c #608FC5",
"i@	c #6F91BC",
"j@	c #979894",
"k@	c #CCCCCA",
"l@	c #D4D6D4",
"m@	c #CAC8C2",
"n@	c #BCA58F",
"o@	c #D7C8B8",
"p@	c #B49A80",
"q@	c #E5903F",
"r@	c #F99B41",
"s@	c #F37903",
"t@	c #EF7300",
"u@	c #EB7000",
"v@	c #E66D00",
"w@	c #DE6A02",
"x@	c #D66605",
"y@	c #D16406",
"z@	c #D46100",
"A@	c #D15C00",
"B@	c #D7B08F",
"C@	c #888980",
"D@	c #A0B2C7",
"E@	c #7197C5",
"F@	c #A0BEDE",
"G@	c #89AED4",
"H@	c #719AC8",
"I@	c #5180B9",
"J@	c #5B789C",
"K@	c #B3B2AF",
"L@	c #D5D5D4",
"M@	c #DADBDC",
"N@	c #BCB2AF",
"O@	c #BD9D8D",
"P@	c #D7BAAE",
"Q@	c #CEBEB4",
"R@	c #B67D45",
"S@	c #F89230",
"T@	c #F47A04",
"U@	c #EF7400",
"V@	c #EB7100",
"W@	c #E86E00",
"X@	c #D76906",
"Y@	c #D06A10",
"Z@	c #CB650B",
"`@	c #D56100",
" #	c #D6B08F",
".#	c #9FB0C5",
"+#	c #5C86BB",
"@#	c #88ADD6",
"##	c #6B96C7",
"$#	c #4375B2",
"%#	c #2C5A93",
"&#	c #818C9F",
"*#	c #D2D6C9",
"=#	c #C9D2C1",
"-#	c #CDD8C4",
";#	c #8CAD61",
">#	c #82A042",
",#	c #96A85A",
"'#	c #C9C7A3",
")#	c #BEA899",
"!#	c #CA7A2D",
"~#	c #F97A00",
"{#	c #D0690C",
"]#	c #CC701E",
"^#	c #C7640D",
"/#	c #D76100",
"(#	c #5B85BB",
"_#	c #86ABD4",
":#	c #6B97C8",
"<#	c #4373AC",
"[#	c #5E7293",
"}#	c #BDD3B3",
"|#	c #9AC86A",
"1#	c #D4E4C3",
"2#	c #C3E2A3",
"3#	c #88DD36",
"4#	c #78DA1E",
"5#	c #76D21E",
"6#	c #6FBF1E",
"7#	c #B5CE8B",
"8#	c #B58E70",
"9#	c #E16F01",
"0#	c #F27500",
"a#	c #C36917",
"b#	c #C77328",
"c#	c #C8620A",
"d#	c #747C7C",
"e#	c #88887F",
"f#	c #9EAFC5",
"g#	c #5783BA",
"h#	c #81A8D2",
"i#	c #6896C9",
"j#	c #4D6E97",
"k#	c #AAB4BB",
"l#	c #8AC952",
"m#	c #A0E35F",
"n#	c #DAF4C0",
"o#	c #C0EA96",
"p#	c #86DA33",
"q#	c #79D71D",
"r#	c #7FDB27",
"s#	c #82D830",
"t#	c #74BB30",
"u#	c #C3C09F",
"v#	c #B97334",
"w#	c #F17200",
"x#	c #EE7100",
"y#	c #C96910",
"z#	c #C97B34",
"A#	c #CD7D36",
"B#	c #BD6111",
"C#	c #D86100",
"D#	c #D15A00",
"E#	c #D8B18F",
"F#	c #6F7778",
"G#	c #5480B8",
"H#	c #7CA5D2",
"I#	c #618CBC",
"J#	c #808FA9",
"K#	c #A3C78D",
"L#	c #67B51B",
"M#	c #B9ED88",
"N#	c #DDF7C6",
"O#	c #CAF1A3",
"P#	c #97E14F",
"Q#	c #86D738",
"R#	c #7ECD32",
"S#	c #6DBB22",
"T#	c #4EA102",
"U#	c #92BC59",
"V#	c #C39F84",
"W#	c #D76A05",
"X#	c #F27200",
"Y#	c #B6681E",
"Z#	c #DC904B",
"`#	c #D98D4A",
" $	c #AE601B",
".$	c #D65A00",
"+$	c #D2640B",
"@$	c #DECAB8",
"#$	c #6D7371",
"$$	c #898980",
"%$	c #9EAFC4",
"&$	c #517EB7",
"*$	c #77A2D2",
"=$	c #6285AC",
"-$	c #A5B2B8",
";$	c #84B857",
">$	c #9BD163",
",$	c #CDEFAC",
"'$	c #CBEBAC",
")$	c #BAEC89",
"!$	c #82D431",
"~$	c #71C61F",
"{$	c #69BB19",
"]$	c #61B114",
"^$	c #56A60B",
"/$	c #5BA314",
"($	c #C8C09B",
"_$	c #BC6A21",
":$	c #F06900",
"<$	c #CF6100",
"[$	c #A86527",
"}$	c #A56730",
"|$	c #C36415",
"1$	c #D98341",
"2$	c #DCC0A6",
"3$	c #B7BDBA",
"4$	c #82837A",
"5$	c #9FAFC5",
"6$	c #4D7CB6",
"7$	c #719ED0",
"8$	c #6C86A8",
"9$	c #ABC1AA",
"0$	c #75A448",
"a$	c #C5E3A8",
"b$	c #D7EEC1",
"c$	c #B5D991",
"d$	c #A8E56C",
"e$	c #7DD22B",
"f$	c #72C621",
"g$	c #6BBD1B",
"h$	c #62B215",
"i$	c #58A60D",
"j$	c #499902",
"k$	c #AAC280",
"l$	c #AD8772",
"m$	c #C8844D",
"n$	c #D18F59",
"o$	c #C9966C",
"p$	c #C7A588",
"q$	c #CABCAB",
"r$	c #B5B8B5",
"s$	c #868C8C",
"t$	c #7C7C74",
"u$	c #A0B1C7",
"v$	c #4A79B5",
"w$	c #6C99CC",
"x$	c #6F85A6",
"y$	c #A5C399",
"z$	c #63A621",
"A$	c #90B26E",
"B$	c #A5C289",
"C$	c #99D261",
"D$	c #92DA4D",
"E$	c #78CC28",
"F$	c #70C320",
"G$	c #68BA1A",
"H$	c #60B014",
"I$	c #57A50D",
"J$	c #469700",
"K$	c #8FBD66",
"L$	c #9FA0A7",
"M$	c #818888",
"N$	c #889091",
"O$	c #80888A",
"P$	c #6E7574",
"Q$	c #494E4D",
"R$	c #C0C0B9",
"S$	c #A7B7CC",
"T$	c #3D70AE",
"U$	c #6495CA",
"V$	c #6B84A6",
"W$	c #AAC2A6",
"X$	c #5BAC0F",
"Y$	c #68BA19",
"Z$	c #74C228",
"`$	c #7CCD2F",
" %	c #7ACB2C",
".%	c #73C622",
"+%	c #6CBF1D",
"@%	c #65B618",
"#%	c #5DAD12",
"$%	c #55A20B",
"%%	c #449500",
"&%	c #97C36D",
"*%	c #88858A",
"=%	c #BEBFBB",
"-%	c #D9DCDE",
";%	c #85A0C2",
">%	c #5D87BB",
",%	c #52749E",
"'%	c #A8B3BC",
")%	c #7FBA4A",
"!%	c #59AF05",
"~%	c #6CBF1A",
"{%	c #6EC11E",
"]%	c #6EC21E",
"^%	c #6DBF1D",
"/%	c #68B919",
"(%	c #61B215",
"_%	c #5AA90F",
":%	c #4C9C01",
"<%	c #56A110",
"[%	c #C0D1B1",
"}%	c #525154",
"|%	c #464845",
"1%	c #AFAFA9",
"2%	c #AAADAC",
"3%	c #9FA3A4",
"4%	c #909091",
"5%	c #BEC7B6",
"6%	c #79B441",
"7%	c #58AB09",
"8%	c #61B60F",
"9%	c #66BA16",
"0%	c #65B817",
"a%	c #61B312",
"b%	c #58AA0A",
"c%	c #4EA000",
"d%	c #5EA41D",
"e%	c #ADC695",
"f%	c #848286",
"g%	c #535153",
"h%	c #A4A5A2",
"i%	c #99B57F",
"j%	c #78AB47",
"k%	c #66A826",
"l%	c #5EA619",
"m%	c #5FA51D",
"n%	c #6CA536",
"o%	c #86AC63",
"p%	c #A4AD9A",
"q%	c #716F73",
"r%	c #5F5C62",
"s%	c #7F7E7F",
"t%	c #83867F",
"u%	c #7E8378",
"v%	c #7C8278",
"w%	c #7D7F7B",
"x%	c #6A676C",
"          . + @ # $ %                                           ",
"  & * = - ; > , ' ) ! ~                                         ",
"{ ] ^ / ( _ : < [ } > , |                               1       ",
"  2 3 4 5 6 7 8 9 ! 0 a                               b c       ",
"    d e f g h i j , k l                               m n       ",
"      o p q r s t u q l       v w x y z h A t B C D E F G       ",
"      H 9 6 I J K _ L ]   M N O P Q R S ( T U V W X Y Z `  ...  ",
"      +.7 @.W #.$.%.&.@   *.=.-.;.>., ,.t '.).!.[ 8 ~.{.].^./.  ",
"      +.( (._.:.<.[.( }.  |.1.0 2.3.4.- 5.[.6.j 7.5 8.9.0.a.b.  ",
"      +.N c.d.i e.f.N }.  g.8.8 5.h.i.j.k.l.l.u m.n.o.p.q.8.r.  ",
"      +.s.t.u.e.v.w.x.@   y.z.u A.B.C.D.E.F.G.H.I.J.K.L.M.N.O.  ",
"      % P.Q.m.R.S.T.r @   U.V.W.3.X.Y.Z.`. +.+++@+#+$+%+&+*+y.  ",
"      =+-+x.;+>+,+'+)+!+~+{+]+^+/+(+_+:+<+[+}+|+1+2+3+4+5+6+7+  ",
"      =+j.m.k.S.8+9+0+A a+u.b+c+d+e+f+g+h+i+j+j+k+l+m+n+o+p+q+  ",
"      r+s+7.4.t+u+v+w+x+y+z+A+B+C+D+E+F+G+H+I+J+K+L+I+M+N+O+q+  ",
"      r+P+Q+R+S+T+U+V+W+X+Y+4.Z+`+ @.@+@@@#@$@%@&@*@=@-@;@>@,@  ",
"      +.'@)@!@~@{@]@^@/@t (@_@:@<@[@}@|@1@2@3@4@5@6@7@8@9@0@a@  ",
"      b@c@d@e@f@g@h@i@j@k@l@m@n@o@p@q@r@s@t@u@v@w@x@y@z@A@B@a@  ",
"      C@D@E@F@G@H@I@J@K@L@M@N@O@P@Q@R@S@T@U@V@W@X@Y@Z@`@A@ #a@  ",
"      C@.#+#@###$#%#&#*#=#-#;#>#,#'#)#!#~#U@V@W@{#]#^#/#A@ #a@  ",
"      C@.#(#_#:#<#[#}#|#1#2#3#4#5#6#7#8#9#0#V@v@a#b#c#/#A@0@d#  ",
"      e#f#g#h#i#j#k#l#m#n#o#p#q#r#s#t#u#v#w#x#y#z#A#B#C#D#E#F#  ",
"      e#f#G#H#I#J#K#L#M#N#O#P#Q#R#S#T#U#V#W#X#Y#Z#`# $.$+$@$#$  ",
"      $$%$&$*$=$-$;$>$,$'$)$!$~${$]$^$/$($_$:$<$[$}$|$1$2$3$    ",
"      4$5$6$7$8$9$0$a$b$c$d$e$f$g$h$i$j$k$l$m$n$o$p$q$r$s$      ",
"      t$u$v$w$x$y$z$A$B$C$D$E$F$G$H$I$J$K$L$M$N$O$P$Q$          ",
"      R$S$T$U$V$W$X$Y$Z$`$ %.%+%@%#%$%%%&%*%                    ",
"      =%-%;%>%,%'%)%!%~%{%]%^%/%(%_%:%<%[%}%                    ",
"      |%v 1%2%3%4%5%6%7%8%9%0%a%b%c%d%e%f%                      ",
"                  g%h%i%j%k%l%m%n%o%p%q%                        ",
"                      r%s%t%u%v%w%x%                            ",
"                                                                "};
